<svg id="Capa_1" data-name="Capa 1" xmlns="http://www.w3.org/2000/svg" xmlns:xlink="http://www.w3.org/1999/xlink" viewBox="0 0 300 768"><defs><style>.cls-1{fill:none;}.cls-2{fill:#66378c;}.cls-3{fill:#2aa437;}.cls-4{clip-path:url(#clip-path);}.cls-5{fill:#fff;}</style><clipPath id="clip-path"><rect class="cls-1" x="1.09" y="39.97" width="300" height="295.61"/></clipPath></defs><title>background-menu</title><rect class="cls-2" width="300" height="768"/><polygon class="cls-3" points="1 286.29 152 174.77 152 281.61 301.17 174.41 301.17 232.87 301.17 768 1 768 1 286.29"/><g class="cls-4"><path class="cls-5" d="M328.35,151.53a10.49,10.49,0,0,1-.06,16.5l-168,131a10.84,10.84,0,0,1-13.53-.6,10.7,10.7,0,0,1-3.46-7.71l.33-99.45L-3.91,306.62-20.16,309a10.48,10.48,0,0,1-4-8.26,10.49,10.49,0,0,1,4-8.24l168-131,.43-.31a11,11,0,0,1,7.66-1.74,10.75,10.75,0,0,1,6.67,3.86c1.7,2.18,2.19,4.27,2.16,7.38l-.33,98.62L304.81,159.7"/></g></svg>