<svg id="Capa_1" data-name="Capa 1" xmlns="http://www.w3.org/2000/svg" viewBox="0 0 195.07 115.85"><defs><style>.cls-1{fill:#fff;}.cls-2{fill:#e55719;}.cls-3{fill:#2aa437;}</style></defs><title>logoJFKFondoMorado</title><path class="cls-1" d="M66.53,40.28a.71.71,0,0,0-.73.08L49.91,52.86a.69.69,0,0,0-.27.55l0,39.76c0,3.43-2,5.66-6.11,6.84a.68.68,0,0,0-.49.77l2.3,14.48a.65.65,0,0,0,.29.46.7.7,0,0,0,.39.13l.15,0c13.77-3,20.75-11,20.75-23.77l0-51.15A.7.7,0,0,0,66.53,40.28Z"/><path class="cls-1" d="M110.15,37H75.44a.69.69,0,0,0-.69.69V97.88a.69.69,0,0,0,.69.69h15.9a.69.69,0,0,0,.69-.69V73.22h15.66a.69.69,0,0,0,.69-.69V59.2a.69.69,0,0,0-.69-.7H92V53.41h18.12a.69.69,0,0,0,.69-.7v-15A.69.69,0,0,0,110.15,37Z"/><path class="cls-2" d="M173.25,97.48l-23-32.63L168.9,38.1a.72.72,0,0,0,0-.72.7.7,0,0,0-.62-.37H148.78a.7.7,0,0,0-.57.29L133.53,58.12V37.7a.69.69,0,0,0-.69-.69H116.9a.69.69,0,0,0-.69.69V97.88a.69.69,0,0,0,.69.69h15.94a.69.69,0,0,0,.69-.69V72l18.63,26.24a.7.7,0,0,0,.56.29h20a.69.69,0,0,0,.56-1.09Z"/><path class="cls-3" d="M66.17,25.15,34.68.42A2,2,0,0,0,31.48,2v8.62a2,2,0,1,0,3.95,0V6L61.75,26.71,35.43,47.38V28.84A2,2,0,0,0,35,27.46a2,2,0,0,0-1.25-.73,2.09,2.09,0,0,0-1.44.34.24.24,0,0,0-.08.06L.75,51.86A2,2,0,0,0,.75,55L32.25,79.7a2,2,0,0,0,2.08.23,2,2,0,0,0,1.11-1.78V69.53a2,2,0,1,0-3.95,0v4.56L5.17,53.41,31.48,32.75v18.7a2,2,0,0,0,.65,1.44,2.06,2.06,0,0,0,2.55.11L66.17,28.26a2,2,0,0,0,0-3.11Z"/><path class="cls-1" d="M80.59,110.58a4.73,4.73,0,0,1-.72.28,4.06,4.06,0,0,1-1.21.15,2.57,2.57,0,0,1-1.06-.2,1.88,1.88,0,0,1-.73-.57,2.4,2.4,0,0,1-.42-.88,4,4,0,0,1-.14-1.12,4,4,0,0,1,.17-1.21,2.65,2.65,0,0,1,.49-.86,1.93,1.93,0,0,1,.75-.51,2.51,2.51,0,0,1,.92-.17,3.71,3.71,0,0,1,1.08.15,3.37,3.37,0,0,1,.76.31l0,0,.45-1.26,0,0-.27-.15a2.64,2.64,0,0,0-.49-.19,7,7,0,0,0-.69-.17,4.94,4.94,0,0,0-.89-.07,4.23,4.23,0,0,0-1.52.27,3.52,3.52,0,0,0-1.23.81A3.72,3.72,0,0,0,75,106.5a4.79,4.79,0,0,0-.3,1.75A5.46,5.46,0,0,0,75,110a3.59,3.59,0,0,0,.76,1.29,3,3,0,0,0,1.2.81,4.42,4.42,0,0,0,1.59.27,5.64,5.64,0,0,0,.85-.05,5.87,5.87,0,0,0,.72-.13c.21-.06.4-.12.55-.18a1.68,1.68,0,0,0,.38-.19l0,0-.42-1.25Z"/><path class="cls-1" d="M86.67,106.93a2.6,2.6,0,0,0-.92-.63,3.17,3.17,0,0,0-2.32,0,2.75,2.75,0,0,0-.91.63,3.07,3.07,0,0,0-.59,1,3.89,3.89,0,0,0,0,2.58,3,3,0,0,0,.59,1,2.64,2.64,0,0,0,.9.64,3,3,0,0,0,1.17.23,3,3,0,0,0,1.18-.23,2.68,2.68,0,0,0,.91-.64,2.79,2.79,0,0,0,.58-1,4.07,4.07,0,0,0,0-2.58A3.07,3.07,0,0,0,86.67,106.93Zm-2.08,4.15a1.15,1.15,0,0,1-1-.5,2.7,2.7,0,0,1,0-2.73,1.29,1.29,0,0,1,2,0,2.7,2.7,0,0,1,0,2.73A1.15,1.15,0,0,1,84.59,111.08Z"/><path class="cls-1" d="M93.46,106.93a2.65,2.65,0,0,0-.91-.63,3,3,0,0,0-1.17-.22,2.91,2.91,0,0,0-1.15.22,2.79,2.79,0,0,0-.92.63,3.07,3.07,0,0,0-.59,1,4.07,4.07,0,0,0,0,2.58,3,3,0,0,0,.59,1,2.64,2.64,0,0,0,.9.64,3,3,0,0,0,1.17.23,3,3,0,0,0,1.18-.23,2.68,2.68,0,0,0,.91-.64,3,3,0,0,0,.59-1,4.06,4.06,0,0,0,.2-1.29,3.79,3.79,0,0,0-.21-1.29A3.07,3.07,0,0,0,93.46,106.93Zm-.7,2.28a2.3,2.3,0,0,1-.36,1.37,1.28,1.28,0,0,1-2,0,2.7,2.7,0,0,1,0-2.73,1.3,1.3,0,0,1,2,0A2.29,2.29,0,0,1,92.76,109.21Z"/><path class="cls-1" d="M100.21,106.94a2.53,2.53,0,0,0-1-.62A3.38,3.38,0,0,0,98,106.1a7.67,7.67,0,0,0-1.29.1c-.41.07-.75.14-1,.21h0v7.87h1.47V112a3.19,3.19,0,0,0,.51.2,3.14,3.14,0,0,0,.78.1,2.71,2.71,0,0,0,1.13-.23,2.21,2.21,0,0,0,.83-.65,2.77,2.77,0,0,0,.51-1,4.15,4.15,0,0,0,.18-1.25,3.81,3.81,0,0,0-.21-1.3A2.8,2.8,0,0,0,100.21,106.94Zm-.68,2.3a2.34,2.34,0,0,1-.33,1.33,1.17,1.17,0,0,1-1,.49,1.8,1.8,0,0,1-.62-.11,1.64,1.64,0,0,1-.44-.21v-3.29a1.53,1.53,0,0,1,.36-.07h.4a1.53,1.53,0,0,1,1.28.49A2.1,2.1,0,0,1,99.53,109.24Z"/><path class="cls-1" d="M104.85,106.08a2.66,2.66,0,0,0-1,.2,2.61,2.61,0,0,0-.89.59,3,3,0,0,0-.63,1,3.91,3.91,0,0,0-.23,1.38,4.08,4.08,0,0,0,.18,1.24,2.73,2.73,0,0,0,.56,1,2.61,2.61,0,0,0,1,.66,3.78,3.78,0,0,0,1.37.23q.3,0,.6,0l.55-.09a4.46,4.46,0,0,0,.46-.11,1.68,1.68,0,0,0,.31-.12l0,0-.2-1.21-.06,0a3.35,3.35,0,0,1-.64.19,4.13,4.13,0,0,1-.89.09,1.88,1.88,0,0,1-1.26-.38,1.45,1.45,0,0,1-.48-1h3.88v0c0-.08,0-.16,0-.26v-.25a3.31,3.31,0,0,0-.69-2.28A2.45,2.45,0,0,0,104.85,106.08Zm-1.26,2.5a3.6,3.6,0,0,1,.12-.44,1.58,1.58,0,0,1,.24-.42,1.45,1.45,0,0,1,.39-.3,1.22,1.22,0,0,1,.53-.11,1.27,1.27,0,0,1,.5.1,1.08,1.08,0,0,1,.35.28,1.2,1.2,0,0,1,.22.42,1.5,1.5,0,0,1,.08.47Z"/><path class="cls-1" d="M112.27,106.23l-.36-.07-.36,0h-.32a6,6,0,0,0-1.32.13,6.58,6.58,0,0,0-1,.28h0v5.68h1.46v-4.72l.32-.07a2.56,2.56,0,0,1,.47,0,3.37,3.37,0,0,1,.68.06l.46.11.06,0,.24-1.2v0l0,0Z"/><path class="cls-1" d="M117.4,106.73a1.77,1.77,0,0,0-.76-.48,3.24,3.24,0,0,0-1.15-.17,6,6,0,0,0-1.07.09,5.4,5.4,0,0,0-.76.18h0l.18,1.21.06,0a4.21,4.21,0,0,1,.63-.15,5.65,5.65,0,0,1,.86-.07,1.46,1.46,0,0,1,.56.09,1,1,0,0,1,.36.24.77.77,0,0,1,.18.36,1.49,1.49,0,0,1,.06.43v.16l-.48-.08-.48,0a4.65,4.65,0,0,0-.93.1,2.4,2.4,0,0,0-.8.32,1.67,1.67,0,0,0-.56.59,1.82,1.82,0,0,0-.2.88,2.08,2.08,0,0,0,.18.91,1.63,1.63,0,0,0,.5.6,2.17,2.17,0,0,0,.77.34,4.84,4.84,0,0,0,1,.1,9,9,0,0,0,1.44-.1c.42-.06.74-.12,1-.16h0v-3.61a4.13,4.13,0,0,0-.12-1A2,2,0,0,0,117.4,106.73Zm-.89,4.36a5.25,5.25,0,0,1-.91.06,1.55,1.55,0,0,1-.8-.18.69.69,0,0,1-.28-.63.66.66,0,0,1,.11-.38.73.73,0,0,1,.28-.24,1.56,1.56,0,0,1,.4-.11,2.28,2.28,0,0,1,.45,0,2.19,2.19,0,0,1,.46,0,1.55,1.55,0,0,1,.29,0Z"/><path class="cls-1" d="M123,110.85l-.45.14a2.51,2.51,0,0,1-.65.08.86.86,0,0,1-.72-.28,1.77,1.77,0,0,1-.22-1v-2.34H123v-1.24h-2.1v-1.78l-1.46.24v5.13a5.54,5.54,0,0,0,.1,1.06,2,2,0,0,0,.36.79,1.64,1.64,0,0,0,.69.51,3,3,0,0,0,1.07.17,3.57,3.57,0,0,0,.92-.11,4,4,0,0,0,.62-.21l0,0-.24-1.17Z"/><rect class="cls-1" x="124.32" y="106.22" width="1.46" height="5.98"/><path class="cls-1" d="M125.05,103.66a.94.94,0,0,0-.63.23.83.83,0,0,0-.26.66.79.79,0,0,0,.26.64.9.9,0,0,0,.63.24.88.88,0,0,0,.62-.24.82.82,0,0,0,.26-.64.88.88,0,0,0-.26-.66A.91.91,0,0,0,125.05,103.66Z"/><path class="cls-1" d="M131,106.26c-.08.34-.18.69-.29,1.06s-.23.76-.36,1.14-.25.74-.37,1.1-.22.59-.32.84c-.1-.26-.21-.54-.32-.84s-.26-.72-.38-1.1-.24-.76-.35-1.14-.21-.73-.29-1.06v0h-1.56l0,.07a33.71,33.71,0,0,0,1.08,3.22c.39,1,.78,1.9,1.16,2.67v0h1.23l0,0c.37-.77.76-1.67,1.16-2.67s.76-2.08,1.08-3.22l0-.07H131Z"/><path class="cls-1" d="M137.38,106.73a1.77,1.77,0,0,0-.76-.48,3.24,3.24,0,0,0-1.15-.17,6,6,0,0,0-1.07.09,5.4,5.4,0,0,0-.76.18h0l.18,1.21.06,0a4.53,4.53,0,0,1,.63-.15,5.65,5.65,0,0,1,.86-.07,1.55,1.55,0,0,1,.57.09,1,1,0,0,1,.35.24.77.77,0,0,1,.18.36,1.49,1.49,0,0,1,.06.43v.16l-.48-.08-.47,0a4.67,4.67,0,0,0-.94.1,2.4,2.4,0,0,0-.8.32,1.64,1.64,0,0,0-.55.59,1.71,1.71,0,0,0-.21.88,2.08,2.08,0,0,0,.18.91,1.63,1.63,0,0,0,.5.6,2.17,2.17,0,0,0,.77.34,4.84,4.84,0,0,0,1,.1,9,9,0,0,0,1.44-.1c.42-.06.74-.12,1-.16h0v-3.61a3.66,3.66,0,0,0-.12-1A1.87,1.87,0,0,0,137.38,106.73Zm-.89,2.93v1.43a5.25,5.25,0,0,1-.91.06,1.49,1.49,0,0,1-.79-.18.67.67,0,0,1-.28-.63.65.65,0,0,1,.1-.38.73.73,0,0,1,.28-.24,1.56,1.56,0,0,1,.4-.11,2.28,2.28,0,0,1,.45,0,2.19,2.19,0,0,1,.46,0A1.55,1.55,0,0,1,136.49,109.66Z"/><polygon class="cls-1" points="142.28 112.2 143.8 112.2 143.8 108.81 146.92 108.81 146.92 107.5 143.8 107.5 143.8 105.61 147.31 105.61 147.31 104.31 142.28 104.31 142.28 112.2"/><path class="cls-1" d="M149.21,103.66a.92.92,0,0,0-.63.23.85.85,0,0,0-.27.66.8.8,0,0,0,.27.64.88.88,0,0,0,.63.24.89.89,0,0,0,.62-.24.82.82,0,0,0,.26-.64.87.87,0,0,0-.26-.66A.93.93,0,0,0,149.21,103.66Z"/><rect class="cls-1" x="148.48" y="106.22" width="1.46" height="5.98"/><path class="cls-1" d="M156.12,106.86a1.86,1.86,0,0,0-.79-.56,3.31,3.31,0,0,0-1.22-.2,8.82,8.82,0,0,0-1.41.1c-.42.07-.76.14-1,.21l0,0v5.77h1.46v-4.75l.37,0,.54,0a1.59,1.59,0,0,1,.57.09.84.84,0,0,1,.36.28,1.43,1.43,0,0,1,.2.53,4.38,4.38,0,0,1,.06.79v3.14h1.46v-3.35a4.84,4.84,0,0,0-.12-1.11A2.18,2.18,0,0,0,156.12,106.86Z"/><path class="cls-1" d="M162.2,106.73a1.74,1.74,0,0,0-.75-.48,3.3,3.3,0,0,0-1.16-.17,6.18,6.18,0,0,0-1.07.09,5.77,5.77,0,0,0-.76.18h0l.19,1.21.06,0a4.21,4.21,0,0,1,.63-.15,5.65,5.65,0,0,1,.86-.07,1.53,1.53,0,0,1,.56.09.91.91,0,0,1,.35.24.89.89,0,0,1,.19.36,2,2,0,0,1,.05.43v.16l-.47-.08-.48,0a4.75,4.75,0,0,0-.94.1,2.48,2.48,0,0,0-.8.32,1.64,1.64,0,0,0-.55.59,1.71,1.71,0,0,0-.2.88,2.08,2.08,0,0,0,.18.91,1.54,1.54,0,0,0,.5.6,2.12,2.12,0,0,0,.76.34,5,5,0,0,0,1,.1,9.09,9.09,0,0,0,1.45-.1c.42-.06.74-.12.95-.16h0v-3.61a3.66,3.66,0,0,0-.12-1A1.87,1.87,0,0,0,162.2,106.73Zm-.89,4.36a5.12,5.12,0,0,1-.9.06,1.51,1.51,0,0,1-.8-.18.67.67,0,0,1-.28-.63.65.65,0,0,1,.1-.38.81.81,0,0,1,.28-.24,1.68,1.68,0,0,1,.4-.11,2.42,2.42,0,0,1,.45,0,2.29,2.29,0,0,1,.47,0,1.43,1.43,0,0,1,.28,0Z"/><path class="cls-1" d="M168.84,106.86a1.92,1.92,0,0,0-.79-.56,3.35,3.35,0,0,0-1.22-.2,8.74,8.74,0,0,0-1.41.1c-.42.07-.77.14-1,.21l0,0v5.77h1.47v-4.75l.37,0,.53,0a1.64,1.64,0,0,1,.58.09.77.77,0,0,1,.36.28,1.43,1.43,0,0,1,.19.53,4.38,4.38,0,0,1,.06.79v3.14h1.47v-3.35a4.84,4.84,0,0,0-.12-1.11A2.18,2.18,0,0,0,168.84,106.86Z"/><path class="cls-1" d="M175.1,110.84a3.7,3.7,0,0,1-.58.16,3.08,3.08,0,0,1-.68.07,1.57,1.57,0,0,1-1.29-.49,2.22,2.22,0,0,1-.38-1.36,2.16,2.16,0,0,1,.4-1.38,1.47,1.47,0,0,1,1.18-.48,3.21,3.21,0,0,1,.63.06,3.17,3.17,0,0,1,.52.17l.06,0,.32-1.21,0,0a4.29,4.29,0,0,0-1.6-.3,3.08,3.08,0,0,0-1.24.24,2.71,2.71,0,0,0-.93.66,2.79,2.79,0,0,0-.59,1,3.59,3.59,0,0,0-.21,1.24,3.94,3.94,0,0,0,.19,1.25,2.55,2.55,0,0,0,1.49,1.65,3.65,3.65,0,0,0,1.34.23,5,5,0,0,0,.95-.09,2.86,2.86,0,0,0,.69-.21h0l-.21-1.23Z"/><rect class="cls-1" x="176.38" y="106.22" width="1.46" height="5.98"/><path class="cls-1" d="M177.11,103.66a.92.92,0,0,0-.63.23.85.85,0,0,0-.27.66.8.8,0,0,0,.27.64.88.88,0,0,0,.63.24.89.89,0,0,0,.62-.24.82.82,0,0,0,.26-.64.88.88,0,0,0-.26-.66A.93.93,0,0,0,177.11,103.66Z"/><path class="cls-1" d="M182,106.08a2.62,2.62,0,0,0-1,.2,2.56,2.56,0,0,0-.9.59,2.83,2.83,0,0,0-.62,1,3.7,3.7,0,0,0-.24,1.38,4.08,4.08,0,0,0,.18,1.24,2.61,2.61,0,0,0,.57,1,2.57,2.57,0,0,0,1,.66,3.82,3.82,0,0,0,1.37.23,5.88,5.88,0,0,0,.6,0c.2,0,.39,0,.55-.09a3.91,3.91,0,0,0,.46-.11l.32-.12,0,0-.2-1.21-.06,0a3.22,3.22,0,0,1-.63.19,4.22,4.22,0,0,1-.9.09,1.88,1.88,0,0,1-1.26-.38,1.49,1.49,0,0,1-.48-1h3.88v0a2,2,0,0,0,0-.26c0-.09,0-.18,0-.25a3.31,3.31,0,0,0-.7-2.28A2.45,2.45,0,0,0,182,106.08Zm.87,1.61a1.4,1.4,0,0,1,.22.42,1.84,1.84,0,0,1,.07.47h-2.42a2.36,2.36,0,0,1,.11-.44,1.58,1.58,0,0,1,.24-.42,1.45,1.45,0,0,1,.39-.3,1.25,1.25,0,0,1,.53-.11,1.27,1.27,0,0,1,.5.1A1.25,1.25,0,0,1,182.87,107.69Z"/><path class="cls-1" d="M189.41,106.23l-.35-.07-.37,0h-.32a6,6,0,0,0-1.32.13,6.42,6.42,0,0,0-1,.28h0v5.68h1.47v-4.72l.31-.07a2.63,2.63,0,0,1,.47,0,3.37,3.37,0,0,1,.68.06l.47.11.05,0,.25-1.2v0l0,0Z"/><path class="cls-1" d="M195,107.49a1.75,1.75,0,0,0-1.16-1.24,3.34,3.34,0,0,0-1.16-.17,6.18,6.18,0,0,0-1.07.09,5.4,5.4,0,0,0-.76.18h0l.19,1.21.05,0a4.38,4.38,0,0,1,.64-.15,5.41,5.41,0,0,1,.85-.07,1.55,1.55,0,0,1,.57.09,1,1,0,0,1,.35.24.89.89,0,0,1,.19.36,2,2,0,0,1,.05.43v.16l-.47-.08-.48,0a4.75,4.75,0,0,0-.94.1,2.48,2.48,0,0,0-.8.32,1.64,1.64,0,0,0-.55.59,1.71,1.71,0,0,0-.21.88,2.08,2.08,0,0,0,.18.91,1.63,1.63,0,0,0,.5.6,2.17,2.17,0,0,0,.77.34,5,5,0,0,0,1,.1,9,9,0,0,0,1.44-.1c.42-.06.74-.12,1-.16h0v-3.61A3.66,3.66,0,0,0,195,107.49Zm-1.3,2.17v1.43a5.25,5.25,0,0,1-.91.06A1.49,1.49,0,0,1,192,111a.66.66,0,0,1-.28-.63.65.65,0,0,1,.1-.38.73.73,0,0,1,.28-.24,1.56,1.56,0,0,1,.4-.11,2.66,2.66,0,0,1,.92,0Z"/></svg>