<svg id="Capa_1" data-name="Capa 1" xmlns="http://www.w3.org/2000/svg" viewBox="0 0 180.54 107.36"><defs><style>.cls-1{fill:#2aa437;}.cls-2{fill:#e55719;}.cls-3{fill:#66378c;}</style></defs><title>logoJfkLogin</title><path class="cls-1" d="M61.81,37.65a.61.61,0,0,0-.66.07L46.71,49.09a.63.63,0,0,0-.24.49l0,36.16c0,3.12-1.81,5.15-5.55,6.22a.63.63,0,0,0-.44.7l2.08,13.17a.64.64,0,0,0,.63.53h.13c12.51-2.7,18.85-10,18.85-21.62l0-46.51A.62.62,0,0,0,61.81,37.65Z"/><path class="cls-1" d="M101.42,34.67H69.9a.63.63,0,0,0-.63.63V90a.63.63,0,0,0,.63.63H84.34A.63.63,0,0,0,85,90V67.6H99.19a.63.63,0,0,0,.63-.63V54.85a.63.63,0,0,0-.63-.63H85V49.58h16.45a.63.63,0,0,0,.63-.63V35.3A.63.63,0,0,0,101.42,34.67Z"/><path class="cls-2" d="M158.73,89.66,137.87,60l16.91-24.33a.63.63,0,0,0,0-.65.63.63,0,0,0-.56-.34H136.51a.63.63,0,0,0-.52.27L122.66,53.87V35.3a.63.63,0,0,0-.63-.63H107.56a.63.63,0,0,0-.63.63V90a.63.63,0,0,0,.63.63H122a.63.63,0,0,0,.63-.63V66.52l16.91,23.87a.65.65,0,0,0,.52.26h18.13a.62.62,0,0,0,.51-1Z"/><path class="cls-3" d="M61.48,23.89,32.88,1.4A1.79,1.79,0,0,0,30,2.81v7.84a1.8,1.8,0,1,0,3.59,0V6.5l23.9,18.8L33.57,44.1V27.24A1.85,1.85,0,0,0,33.2,26a1.83,1.83,0,0,0-2.45-.35l-.08.05L2.08,48.18a1.79,1.79,0,0,0,0,2.82L30.67,73.5a1.84,1.84,0,0,0,1.9.2,1.79,1.79,0,0,0,1-1.61V64.24a1.8,1.8,0,0,0-3.59,0v4.15L6.09,49.59,30,30.8v17a1.8,1.8,0,0,0,.59,1.31,1.84,1.84,0,0,0,2.31.1l28.6-22.5a1.79,1.79,0,0,0,0-2.82Z"/><path class="cls-3" d="M74.58,101.58a4.45,4.45,0,0,1-.66.25,3.68,3.68,0,0,1-1.1.14,2.16,2.16,0,0,1-1-.19,1.68,1.68,0,0,1-.66-.51,2.37,2.37,0,0,1-.38-.8,3.65,3.65,0,0,1-.13-1,3.31,3.31,0,0,1,.16-1.1,2.24,2.24,0,0,1,.45-.79A1.75,1.75,0,0,1,72,97.1a2.32,2.32,0,0,1,.84-.16,3.41,3.41,0,0,1,1,.14,3.1,3.1,0,0,1,.69.29l0,0,.41-1.14,0,0-.25-.14a2.13,2.13,0,0,0-.44-.17,4.18,4.18,0,0,0-.63-.15,4,4,0,0,0-.81-.07,3.72,3.72,0,0,0-1.38.25,3.19,3.19,0,0,0-1.12.73,3.51,3.51,0,0,0-.75,1.17,4.44,4.44,0,0,0-.27,1.6,4.87,4.87,0,0,0,.24,1.59,3.09,3.09,0,0,0,.68,1.17,3,3,0,0,0,1.09.74,4.16,4.16,0,0,0,1.45.25,6,6,0,0,0,.77,0,5.29,5.29,0,0,0,1.15-.29,1.56,1.56,0,0,0,.34-.16l0,0-.37-1.14Z"/><path class="cls-3" d="M80.1,98.26a2.44,2.44,0,0,0-.83-.58,2.82,2.82,0,0,0-1.06-.2,2.77,2.77,0,0,0-1,.2,2.54,2.54,0,0,0-.83.58,2.7,2.7,0,0,0-.54.9,3.59,3.59,0,0,0-.19,1.17,3.63,3.63,0,0,0,.19,1.17,2.7,2.7,0,0,0,.54.9,2.42,2.42,0,0,0,.82.59,2.94,2.94,0,0,0,2.13,0,2.46,2.46,0,0,0,.83-.59,2.68,2.68,0,0,0,.53-.9,3.63,3.63,0,0,0,.19-1.17,3.34,3.34,0,0,0-.2-1.17A2.52,2.52,0,0,0,80.1,98.26ZM78.21,102a1.08,1.08,0,0,1-.92-.45,2.13,2.13,0,0,1-.33-1.25,2.07,2.07,0,0,1,.33-1.24,1.08,1.08,0,0,1,.92-.45,1.07,1.07,0,0,1,.92.45,2.07,2.07,0,0,1,.34,1.24,2.13,2.13,0,0,1-.34,1.25A1.07,1.07,0,0,1,78.21,102Z"/><path class="cls-3" d="M86.27,98.26a2.44,2.44,0,0,0-.83-.58,2.82,2.82,0,0,0-1.06-.2,2.77,2.77,0,0,0-1,.2,2.44,2.44,0,0,0-.83.58,2.7,2.7,0,0,0-.54.9,3.34,3.34,0,0,0-.19,1.17A3.38,3.38,0,0,0,82,101.5a2.7,2.7,0,0,0,.54.9,2.33,2.33,0,0,0,.82.59,2.78,2.78,0,0,0,1.06.2,2.83,2.83,0,0,0,1.07-.2,2.46,2.46,0,0,0,.83-.59,2.86,2.86,0,0,0,.53-.9,3.63,3.63,0,0,0,.18-1.17,3.34,3.34,0,0,0-.19-1.17A2.86,2.86,0,0,0,86.27,98.26Zm-.64,2.07a2.13,2.13,0,0,1-.33,1.25,1.07,1.07,0,0,1-.92.45,1.08,1.08,0,0,1-.92-.45,2.13,2.13,0,0,1-.33-1.25,2.07,2.07,0,0,1,.33-1.24,1.17,1.17,0,0,1,1.84,0A2.07,2.07,0,0,1,85.63,100.33Z"/><path class="cls-3" d="M92.4,98.26a2.46,2.46,0,0,0-.87-.56,3.23,3.23,0,0,0-1.15-.2,7.43,7.43,0,0,0-1.18.09,8.55,8.55,0,0,0-.93.2h0v7.14h1.33v-2a2.78,2.78,0,0,0,.47.17,2.76,2.76,0,0,0,1.73-.11,2.11,2.11,0,0,0,.76-.59,2.73,2.73,0,0,0,.46-.9,3.67,3.67,0,0,0,.16-1.13A3.36,3.36,0,0,0,93,99.16,2.57,2.57,0,0,0,92.4,98.26Zm-.62,2.1a2.17,2.17,0,0,1-.3,1.21,1.08,1.08,0,0,1-1,.44,1.69,1.69,0,0,1-.56-.09,1.74,1.74,0,0,1-.41-.2v-3l.33,0,.36,0a1.41,1.41,0,0,1,1.17.45A2,2,0,0,1,91.78,100.36Z"/><path class="cls-3" d="M96.62,97.48a2.53,2.53,0,0,0-.94.18,2.34,2.34,0,0,0-.82.54,2.7,2.7,0,0,0-.56.9,3.46,3.46,0,0,0-.22,1.26,3.65,3.65,0,0,0,.17,1.12,2.51,2.51,0,0,0,.51.9,2.31,2.31,0,0,0,.88.59,3.35,3.35,0,0,0,1.24.21,4.93,4.93,0,0,0,.55,0l.5-.07a3.44,3.44,0,0,0,.41-.11,1.79,1.79,0,0,0,.29-.11h0l-.18-1.1,0,0a3.19,3.19,0,0,1-.58.17A4.15,4.15,0,0,1,97,102a1.69,1.69,0,0,1-1.14-.34,1.36,1.36,0,0,1-.43-.92H99v0c0-.07,0-.15,0-.23v-.24a3,3,0,0,0-.63-2.07A2.23,2.23,0,0,0,96.62,97.48Zm-1.15,2.28a2.6,2.6,0,0,1,.1-.4A1.54,1.54,0,0,1,95.8,99a1.13,1.13,0,0,1,.34-.27,1.22,1.22,0,0,1,.49-.1,1,1,0,0,1,.45.09.92.92,0,0,1,.32.26,1.07,1.07,0,0,1,.21.38,1.54,1.54,0,0,1,.06.43Z"/><path class="cls-3" d="M103.35,97.62l-.32-.06-.33,0h-.3a5.61,5.61,0,0,0-1.2.12,7.4,7.4,0,0,0-.9.25h0v5.17h1.33v-4.3l.29-.06a3.29,3.29,0,0,1,.42,0,2.77,2.77,0,0,1,.62.06l.42.1.05,0,.23-1.09v0h0Z"/><path class="cls-3" d="M108,98.08a1.8,1.8,0,0,0-.69-.45,3.2,3.2,0,0,0-1-.15,6,6,0,0,0-1,.08,4.93,4.93,0,0,0-.69.17h0l.17,1.09.05,0a3.81,3.81,0,0,1,.58-.14,4.67,4.67,0,0,1,.78-.06,1.52,1.52,0,0,1,.51.08.83.83,0,0,1,.32.22.76.76,0,0,1,.17.32,1.75,1.75,0,0,1,0,.4v.15a4,4,0,0,0-.43-.08l-.44,0a4,4,0,0,0-.85.09,2,2,0,0,0-.73.29,1.5,1.5,0,0,0-.5.53,1.66,1.66,0,0,0-.18.8,1.86,1.86,0,0,0,.16.83,1.52,1.52,0,0,0,.45.55,1.93,1.93,0,0,0,.7.3,4.13,4.13,0,0,0,.89.09,10.12,10.12,0,0,0,1.31-.08l.87-.15h0V99.64a3.48,3.48,0,0,0-.11-.88A1.72,1.72,0,0,0,108,98.08Zm-.81,4a5.61,5.61,0,0,1-.83,0,1.37,1.37,0,0,1-.72-.16.61.61,0,0,1-.25-.57.63.63,0,0,1,.09-.35.64.64,0,0,1,.25-.21,1.07,1.07,0,0,1,.37-.11,2.83,2.83,0,0,1,.41,0,2.77,2.77,0,0,1,.42,0l.26,0Z"/><path class="cls-3" d="M113.08,101.82l-.41.13a2.12,2.12,0,0,1-.59.07.78.78,0,0,1-.66-.26,1.53,1.53,0,0,1-.19-.89V98.73h1.9V97.61h-1.9V96l-1.33.22v4.67a4.51,4.51,0,0,0,.09,1,1.69,1.69,0,0,0,.33.73,1.47,1.47,0,0,0,.62.46,2.77,2.77,0,0,0,1,.15,3.46,3.46,0,0,0,.83-.09,4.56,4.56,0,0,0,.57-.2h0l-.22-1.07Z"/><rect class="cls-3" x="114.3" y="97.61" width="1.33" height="5.44"/><path class="cls-3" d="M115,95.28a.81.81,0,0,0-.58.22.75.75,0,0,0-.24.59.76.76,0,0,0,.24.59.84.84,0,0,0,.58.21.83.83,0,0,0,.56-.21.76.76,0,0,0,.24-.59.75.75,0,0,0-.24-.59A.79.79,0,0,0,115,95.28Z"/><path class="cls-3" d="M120.35,97.65c-.07.3-.16.63-.26,1s-.22.7-.33,1-.22.68-.34,1-.2.54-.29.77c-.09-.23-.18-.49-.29-.77l-.35-1c-.11-.34-.21-.68-.31-1s-.19-.66-.26-1v0h-1.42l0,.06a28.72,28.72,0,0,0,1,2.93Q118,102,118.54,103l0,0h1.11v0c.35-.71.7-1.52,1.06-2.43a29.57,29.57,0,0,0,1-2.93l0-.06h-1.38Z"/><path class="cls-3" d="M126.15,98.08a1.76,1.76,0,0,0-.68-.45,3.24,3.24,0,0,0-1-.15,6,6,0,0,0-1,.08,4.59,4.59,0,0,0-.69.17h0l.17,1.09,0,0a3.81,3.81,0,0,1,.58-.14,4.58,4.58,0,0,1,.78-.06,1.41,1.41,0,0,1,.5.08.76.76,0,0,1,.32.22.67.67,0,0,1,.17.32,1.33,1.33,0,0,1,0,.4v.15a3.58,3.58,0,0,0-.43-.08l-.43,0a3.89,3.89,0,0,0-.85.09,1.9,1.9,0,0,0-.73.29,1.41,1.41,0,0,0-.5.53,1.66,1.66,0,0,0-.19.8,1.86,1.86,0,0,0,.17.83,1.52,1.52,0,0,0,.45.55,1.86,1.86,0,0,0,.7.3,4.13,4.13,0,0,0,.89.09,10.35,10.35,0,0,0,1.31-.08l.87-.15h0V99.64a3.08,3.08,0,0,0-.11-.88A1.51,1.51,0,0,0,126.15,98.08Zm-.81,2.66V102a5.56,5.56,0,0,1-.82,0,1.35,1.35,0,0,1-.72-.16.62.62,0,0,1-.26-.57.56.56,0,0,1,.1-.35.64.64,0,0,1,.25-.21,1.07,1.07,0,0,1,.37-.11,2.69,2.69,0,0,1,.4,0,2.81,2.81,0,0,1,.43,0Z"/><polygon class="cls-3" points="130.6 103.05 131.98 103.05 131.98 99.96 134.81 99.96 134.81 98.78 131.98 98.78 131.98 97.06 135.17 97.06 135.17 95.87 130.6 95.87 130.6 103.05"/><path class="cls-3" d="M136.9,95.28a.81.81,0,0,0-.58.22.75.75,0,0,0-.24.59.76.76,0,0,0,.24.59.84.84,0,0,0,.58.21.83.83,0,0,0,.56-.21.76.76,0,0,0,.24-.59.75.75,0,0,0-.24-.59A.79.79,0,0,0,136.9,95.28Z"/><rect class="cls-3" x="136.24" y="97.61" width="1.33" height="5.44"/><path class="cls-3" d="M143.18,98.2a1.76,1.76,0,0,0-.72-.52,3,3,0,0,0-1.11-.18,8.38,8.38,0,0,0-1.28.09,7.83,7.83,0,0,0-.94.2h0v5.25h1.33V98.73l.34,0,.48,0a1.31,1.31,0,0,1,.52.09.66.66,0,0,1,.33.26,1.36,1.36,0,0,1,.18.47,3.8,3.8,0,0,1,.05.72v2.86h1.33v-3a4.06,4.06,0,0,0-.11-1A2,2,0,0,0,143.18,98.2Z"/><path class="cls-3" d="M148.7,98.08a1.8,1.8,0,0,0-.69-.45,3.2,3.2,0,0,0-1-.15,6,6,0,0,0-1,.08,4.93,4.93,0,0,0-.69.17h0l.17,1.09,0,0a3.81,3.81,0,0,1,.58-.14,4.67,4.67,0,0,1,.78-.06,1.47,1.47,0,0,1,.51.08.83.83,0,0,1,.32.22.76.76,0,0,1,.17.32,1.75,1.75,0,0,1,0,.4v.15a4,4,0,0,0-.43-.08l-.44,0a4,4,0,0,0-.85.09,2,2,0,0,0-.73.29,1.5,1.5,0,0,0-.5.53,1.66,1.66,0,0,0-.18.8,1.86,1.86,0,0,0,.16.83,1.45,1.45,0,0,0,.46.55,1.81,1.81,0,0,0,.69.3,4.13,4.13,0,0,0,.89.09,10.12,10.12,0,0,0,1.31-.08l.87-.15h0V99.64a3.48,3.48,0,0,0-.11-.88A1.72,1.72,0,0,0,148.7,98.08Zm-.81,4a5.61,5.61,0,0,1-.83,0,1.37,1.37,0,0,1-.72-.16.61.61,0,0,1-.25-.57.63.63,0,0,1,.09-.35.64.64,0,0,1,.25-.21,1.14,1.14,0,0,1,.37-.11,2.83,2.83,0,0,1,.41,0,2.77,2.77,0,0,1,.42,0l.26,0Z"/><path class="cls-3" d="M154.73,98.2a1.83,1.83,0,0,0-.72-.52,3.06,3.06,0,0,0-1.12-.18,8.24,8.24,0,0,0-1.27.09,7.83,7.83,0,0,0-.94.2h0v5.25H152V98.73l.34,0a4,4,0,0,1,.48,0,1.31,1.31,0,0,1,.52.09.66.66,0,0,1,.33.26,1.36,1.36,0,0,1,.18.47,4.87,4.87,0,0,1,0,.72v2.86h1.33v-3a4.6,4.6,0,0,0-.11-1A2,2,0,0,0,154.73,98.2Z"/><path class="cls-3" d="M160.41,101.81a3.28,3.28,0,0,1-1.14.21,1.39,1.39,0,0,1-1.17-.45,2,2,0,0,1-.35-1.23,1.91,1.91,0,0,1,.37-1.26,1.32,1.32,0,0,1,1.07-.44,2.47,2.47,0,0,1,.56.06,2.72,2.72,0,0,1,.48.15l.05,0,.29-1.1h0a3.71,3.71,0,0,0-1.45-.28,2.7,2.7,0,0,0-1.12.22,2.47,2.47,0,0,0-.85.6,2.66,2.66,0,0,0-.53.91,3.23,3.23,0,0,0-.19,1.13,3.77,3.77,0,0,0,.16,1.13,2.79,2.79,0,0,0,.51.91,2.31,2.31,0,0,0,.86.59,3.14,3.14,0,0,0,1.2.21,4.14,4.14,0,0,0,.87-.08,2.51,2.51,0,0,0,.63-.19h0l-.19-1.11Z"/><rect class="cls-3" x="161.57" y="97.61" width="1.33" height="5.44"/><path class="cls-3" d="M162.23,95.28a.8.8,0,0,0-.57.22.75.75,0,0,0-.24.59.76.76,0,0,0,.24.59.88.88,0,0,0,1.14,0,.76.76,0,0,0,.24-.59.75.75,0,0,0-.24-.59A.8.8,0,0,0,162.23,95.28Z"/><path class="cls-3" d="M166.67,97.48a2.52,2.52,0,0,0-.93.18,2.34,2.34,0,0,0-.82.54,2.7,2.7,0,0,0-.56.9,3.26,3.26,0,0,0-.22,1.26,3.65,3.65,0,0,0,.17,1.12,2.51,2.51,0,0,0,.51.9,2.35,2.35,0,0,0,.87.59,3.45,3.45,0,0,0,1.25.21,5.07,5.07,0,0,0,.55,0l.5-.07a3.44,3.44,0,0,0,.41-.11,1.79,1.79,0,0,0,.29-.11h0l-.18-1.1,0,0a3.19,3.19,0,0,1-.58.17,4.15,4.15,0,0,1-.82.08,1.67,1.67,0,0,1-1.14-.34,1.36,1.36,0,0,1-.43-.92H169v0c0-.07,0-.15,0-.23v-.24a3,3,0,0,0-.63-2.07A2.24,2.24,0,0,0,166.67,97.48Zm.79,1.47a1,1,0,0,1,.2.38,1.55,1.55,0,0,1,.07.43h-2.2a1.8,1.8,0,0,1,.1-.4,1.5,1.5,0,0,1,.22-.39,1.31,1.31,0,0,1,.35-.27,1.21,1.21,0,0,1,.48-.1,1.08,1.08,0,0,1,.46.09A1,1,0,0,1,167.46,99Z"/><path class="cls-3" d="M173.4,97.62a1.65,1.65,0,0,0-.32-.06l-.33,0h-.29a5.61,5.61,0,0,0-1.2.12,6.92,6.92,0,0,0-.9.25h0v5.17h1.33v-4.3l.28-.06a3.44,3.44,0,0,1,.43,0,2.83,2.83,0,0,1,.62.06l.42.1.05,0,.22-1.09v0h0A1,1,0,0,0,173.4,97.62Z"/><path class="cls-3" d="M178.43,98.76a1.59,1.59,0,0,0-.36-.68,1.88,1.88,0,0,0-.69-.45,3.24,3.24,0,0,0-1-.15,6,6,0,0,0-1,.08,4.93,4.93,0,0,0-.69.17h0l.17,1.09,0,0a3.81,3.81,0,0,1,.58-.14,4.58,4.58,0,0,1,.78-.06,1.52,1.52,0,0,1,.51.08.83.83,0,0,1,.32.22.9.9,0,0,1,.17.32,1.75,1.75,0,0,1,0,.4v.15c-.16,0-.3-.06-.43-.08l-.44,0a4,4,0,0,0-.85.09,1.9,1.9,0,0,0-.73.29,1.41,1.41,0,0,0-.5.53,1.66,1.66,0,0,0-.18.8,1.89,1.89,0,0,0,.16.83,1.52,1.52,0,0,0,.45.55,1.86,1.86,0,0,0,.7.3,4.13,4.13,0,0,0,.89.09,10.23,10.23,0,0,0,1.31-.08l.87-.15h0V99.64A3.08,3.08,0,0,0,178.43,98.76Zm-1.17,2V102a5.71,5.71,0,0,1-.83,0,1.35,1.35,0,0,1-.72-.16.62.62,0,0,1-.26-.57.63.63,0,0,1,.1-.35.64.64,0,0,1,.25-.21,1.07,1.07,0,0,1,.37-.11,2.69,2.69,0,0,1,.4,0,2.81,2.81,0,0,1,.43,0Z"/></svg>