<svg id="Capa_1" data-name="Capa 1" xmlns="http://www.w3.org/2000/svg" viewBox="0 0 586.37 119.95"><defs><style>.cls-1{fill:#2aa437;}.cls-2{fill:#66378c;}.cls-3{fill:#fff;}</style></defs><title>banner-superriorLogin</title><path class="cls-1" d="M375.45,86.24a3.89,3.89,0,0,1,1.48-3l61.86-48.66.16-.11a3.91,3.91,0,0,1,5.29.76,3.93,3.93,0,0,1,.81,2.73V74.37l51.7-40.66L453.89,0h-8.84V2a3.88,3.88,0,1,1-7.76,0V0H0V120H415.91l-39-30.66A3.9,3.9,0,0,1,375.45,86.24Z"/><path class="cls-2" d="M586.37,0H466.45l39,30.66a3.88,3.88,0,0,1,0,6.1L443.57,85.41a4,4,0,0,1-5-.2,4,4,0,0,1-1.29-2.84V45.59L385.61,86.24,428.47,120h8.84v-2a3.88,3.88,0,1,1,7.76,0v2h141.3Z"/><path class="cls-3" d="M385.61,86.24l51.67-40.65V82.37a4,4,0,0,0,1.29,2.84,4,4,0,0,0,5,.2l61.86-48.65a3.88,3.88,0,0,0,0-6.1L466.45,0H453.89l42.86,33.71-51.7,40.66V37.91a3.93,3.93,0,0,0-.81-2.73,3.91,3.91,0,0,0-5.29-.76l-.16.11L376.93,83.19a3.88,3.88,0,0,0,0,6.1l39,30.66h12.56Z"/><path class="cls-3" d="M441.17,5.9A3.88,3.88,0,0,0,445.05,2V0h-7.76V2A3.88,3.88,0,0,0,441.17,5.9Z"/><path class="cls-3" d="M441.19,114.05a3.88,3.88,0,0,0-3.88,3.88v2h7.76v-2A3.88,3.88,0,0,0,441.19,114.05Z"/></svg>